# xmcd
#
# Track frame offsets:
#	150
#	20067
#	34283
#	53924
#	65719
#	88389
#	101046
#	114248
#	132209
#	145532
#	161843
#	181129
#	194275
#	211427
#	221348
#	247026
#
# Disc length: 3863 seconds
#
# Revision: 1
# Processed by: cddbd v1.5.2PL0 Copyright (c) Steve Scherf et al.
# Submitted via: audiograbber 1.83.01
#
DISCID=f00f1510
DTITLE=Classic Country - ASK62D2
DYEAR=1900
DGENRE=Karaoke
TTITLE0=Cash, Johnny - Sunday Mornin' Coming Down
TTITLE1=Cash, Johnny And June Carter - It Ain't Me Babe
TTITLE2=Rogers, Kenny - Coward Of The Country
TTITLE3=Robbins, Marty - White Sport Coat, A (And A Pink Carnation)
TTITLE4=Robbins, Marty - El Paso
TTITLE5=Robbins, Marty - Singin' The Blues
TTITLE6=Oak Ridge Boys - American Made
TTITLE7=Stanley, Ralph - Girl From The Greenbriar Shore
TTITLE8=Ford, Tennessee Ernie - Sixteen Tons
TTITLE9=Charlie Daniels Band, The - Devil Went Down To Georgia, The
TTITLE10=Hall, Tom T. - Old Dogs, Children And Watermelon Wine
TTITLE11=Jennings, Waylon - I'm A Ramblin' Man
TTITLE12=Jennings, Waylon - Luckenbach Texas
TTITLE13=Jennings, Waylon - Theme From Dukes Of Hazzard
TTITLE14=Nelson, Willie - My Heros Have Always Been Cowboys
TTITLE15=Data Track - Data Track
EXTD=
EXTT0=
EXTT1=
EXTT2=
EXTT3=
EXTT4=
EXTT5=
EXTT6=
EXTT7=
EXTT8=
EXTT9=
EXTT10=
EXTT11=
EXTT12=
EXTT13=
EXTT14=
EXTT15=
PLAYORDER=
